<?xml version="1.0" encoding="utf-8"?>
<!-- Generator: Adobe Illustrator 19.0.0, SVG Export Plug-In . SVG Version: 6.00 Build 0)  -->
<svg version="1.1" id="Layer_1" xmlns="http://www.w3.org/2000/svg" xmlns:xlink="http://www.w3.org/1999/xlink" x="0px" y="0px"
	 viewBox="0 0 792 162.8" style="enable-background:new 0 0 792 162.8;" xml:space="preserve">
<style type="text/css">
	.st0{fill:#FFFFFF;}
</style>
<g id="XMLID_316_">
	<g id="XMLID_762_">
		<path id="XMLID_792_" class="st0" d="M27.8,89.5c0,1.3-0.3,2.4-0.8,3.4c-0.5,1-1.3,1.7-2.3,2.3c-1,0.6-2.3,0.8-3.8,0.8
			c-2.2,0-3.8-0.6-5-1.8c-1.2-1.2-1.8-2.8-1.8-4.8V78h2.2v11.5c0,1.5,0.4,2.6,1.2,3.4c0.8,0.8,1.9,1.2,3.5,1.2
			c1.5,0,2.7-0.4,3.4-1.2c0.8-0.8,1.1-1.9,1.1-3.3V78h2.2V89.5z"/>
		<path id="XMLID_790_" class="st0" d="M53.8,95.8L44.3,81h-0.1c0.1,2.1,0.2,3.7,0.2,4.8v9.9h-2.1V78h2.6l9.5,14.7h0.1
			c-0.1-1.9-0.2-3.4-0.2-4.7V78h2.1v17.7H53.8z"/>
		<path id="XMLID_788_" class="st0" d="M69.6,95.8l0.7-2h1.3V80h-2.1v-2H76l-0.7,2h-1.3v13.8H76v2H69.6z"/>
		<path id="XMLID_786_" class="st0" d="M96.5,95.8h-2.2L87.9,78h2.3l4,11.4c0.5,1.4,0.9,2.7,1.1,3.9c0.2-1.1,0.6-2.4,1.1-3.9l4-11.3
			h2.4L96.5,95.8z"/>
		<path id="XMLID_784_" class="st0" d="M115.4,95.8V78h9.9v2h-7.7v5.5h6.7v1.9h-6.7v6.3h8.2l-0.7,2H115.4z"/>
		<path id="XMLID_781_" class="st0" d="M148.7,79.3c1.1,0.8,1.6,2.1,1.6,3.8c0,2.3-1.2,3.9-3.6,4.7l4.9,8H149l-4.3-7.3h-3.5v7.3H139
			V78h4.9C146.1,78,147.7,78.4,148.7,79.3z M141.2,80v6.6h2.7c1.4,0,2.5-0.3,3.1-0.8s1-1.4,1-2.5c0-1.1-0.3-2-1-2.5
			c-0.7-0.5-1.8-0.7-3.2-0.7H141.2z"/>
		<path id="XMLID_779_" class="st0" d="M173.3,94.7c-1.1,0.9-2.7,1.3-4.6,1.3c-1,0-1.9-0.1-2.8-0.2c-0.8-0.1-1.5-0.4-2.1-0.6
			l0.7-1.8c0.4,0.2,1.1,0.4,1.8,0.5c0.8,0.1,1.6,0.2,2.5,0.2c1.3,0,2.3-0.3,3-0.8c0.7-0.5,1-1.2,1-2.1c0-0.6-0.1-1.1-0.4-1.5
			c-0.2-0.4-0.7-0.8-1.3-1.1c-0.6-0.3-1.4-0.7-2.5-1.1c-1.6-0.6-2.7-1.2-3.5-2.1c-0.7-0.8-1.1-1.9-1.1-3.2c0-1.4,0.5-2.5,1.6-3.3
			c1-0.8,2.4-1.2,4.1-1.2c1.8,0,3.4,0.3,4.9,1l-0.7,1.9c-1.5-0.6-2.9-0.9-4.2-0.9c-1.1,0-1.9,0.2-2.5,0.7c-0.6,0.5-0.9,1.1-0.9,1.9
			c0,0.6,0.1,1.1,0.4,1.5c0.2,0.4,0.6,0.7,1.2,1.1c0.5,0.3,1.3,0.7,2.3,1c1.1,0.4,2,0.8,2.7,1.3c0.7,0.4,1.2,1,1.6,1.6
			c0.4,0.6,0.5,1.4,0.5,2.3C175,92.6,174.4,93.8,173.3,94.7z"/>
		<path id="XMLID_777_" class="st0" d="M187.3,95.8l0.7-2h1.3V80h-2.1v-2h6.4l-0.7,2h-1.3v13.8h2.1v2H187.3z"/>
		<path id="XMLID_774_" class="st0" d="M218.7,93.5c-1.6,1.5-3.9,2.3-6.8,2.3h-4.9V78h5.5c2.7,0,4.9,0.8,6.4,2.2
			c1.6,1.5,2.3,3.6,2.3,6.4C221.1,89.7,220.3,91.9,218.7,93.5z M217.1,81.6c-1.1-1.1-2.8-1.7-5-1.7h-2.9v13.9h2.4
			c2.4,0,4.2-0.6,5.4-1.8c1.2-1.2,1.8-2.9,1.8-5.3C218.8,84.5,218.2,82.8,217.1,81.6z"/>
		<path id="XMLID_771_" class="st0" d="M243.5,90.3h-7l-2.1,5.5h-2.3L239,78h2l6.9,17.8h-2.3L243.5,90.3z M240.8,82.9
			c-0.1-0.3-0.3-0.8-0.4-1.3c-0.2-0.5-0.3-1-0.4-1.4c-0.2,1-0.5,1.9-0.8,2.7l-2,5.4h5.6L240.8,82.9z"/>
		<path id="XMLID_768_" class="st0" d="M272.3,93.5c-1.6,1.5-3.9,2.3-6.8,2.3h-4.9V78h5.5c2.7,0,4.9,0.8,6.4,2.2
			c1.6,1.5,2.3,3.6,2.3,6.4C274.8,89.7,274,91.9,272.3,93.5z M270.7,81.6c-1.1-1.1-2.8-1.7-5-1.7h-2.9v13.9h2.4
			c2.4,0,4.2-0.6,5.4-1.8c1.2-1.2,1.8-2.9,1.8-5.3C272.4,84.5,271.8,82.8,270.7,81.6z"/>
		<path id="XMLID_765_" class="st0" d="M316.8,93.5c-1.6,1.5-3.9,2.3-6.8,2.3H305V78h5.5c2.7,0,4.9,0.8,6.4,2.2
			c1.6,1.5,2.3,3.6,2.3,6.4C319.3,89.7,318.4,91.9,316.8,93.5z M315.2,81.6c-1.1-1.1-2.8-1.7-5-1.7h-2.9v13.9h2.4
			c2.4,0,4.2-0.6,5.4-1.8c1.2-1.2,1.8-2.9,1.8-5.3C316.9,84.5,316.3,82.8,315.2,81.6z"/>
		<path id="XMLID_763_" class="st0" d="M333,95.8V78h9.9v2h-7.7v5.5h6.7v1.9h-6.7v6.3h8.2l-0.7,2H333z"/>
	</g>
	<g id="XMLID_733_">
		<path id="XMLID_760_" class="st0" d="M469.3,80.2L469.3,80.2c0,1.2,0.1,2.8,0.1,4.8v10.8h-2.1V78h3.3l5.5,14.5h0.1l5.6-14.5h3.3
			v17.7h-2.2V84.9c0-1.4,0.1-3,0.2-4.6h-0.1L477,95.8h-1.8L469.3,80.2z"/>
		<path id="XMLID_757_" class="st0" d="M514.2,91.7c-0.6,1.4-1.6,2.4-2.8,3.2c-1.2,0.8-2.7,1.1-4.5,1.1c-2.7,0-4.7-0.8-6.1-2.5
			c-1.4-1.6-2.1-3.9-2.1-6.7c0-2.8,0.7-5,2.1-6.7c1.4-1.6,3.4-2.4,6.1-2.4c1.7,0,3.2,0.4,4.4,1.1c1.2,0.7,2.1,1.8,2.8,3.2
			c0.6,1.4,0.9,3,0.9,4.8C515.2,88.7,514.9,90.3,514.2,91.7z M502.6,92.2c1,1.3,2.4,1.9,4.4,1.9c2,0,3.4-0.6,4.4-1.9
			c1-1.3,1.4-3,1.4-5.3c0-2.3-0.5-4.1-1.4-5.3c-1-1.2-2.4-1.9-4.4-1.9c-2,0-3.4,0.6-4.4,1.9c-1,1.2-1.5,3-1.5,5.3
			C501.2,89.2,501.7,91,502.6,92.2z"/>
		<path id="XMLID_755_" class="st0" d="M540.4,95.8L530.9,81h-0.1c0.1,2.1,0.2,3.7,0.2,4.8v9.9H529V78h2.6l9.5,14.7h0.1
			c-0.1-1.9-0.2-3.4-0.2-4.7V78h2.1v17.7H540.4z"/>
		<path id="XMLID_753_" class="st0" d="M561.3,95.8V80h-5.5l0.7-2h12.6v2h-5.5v15.8H561.3z"/>
		<path id="XMLID_751_" class="st0" d="M581.8,95.8V78h9.9v2H584v5.5h6.7v1.9H584v6.3h8.2l-0.7,2H581.8z"/>
		<path id="XMLID_749_" class="st0" d="M607.3,80.2L607.3,80.2c0,1.2,0.1,2.8,0.1,4.8v10.8h-2.1V78h3.3l5.5,14.5h0.1l5.6-14.5h3.3
			v17.7h-2.2V84.9c0-1.4,0.1-3,0.2-4.6h-0.1L615,95.8h-1.8L607.3,80.2z"/>
		<path id="XMLID_746_" class="st0" d="M652.3,91.7c-0.6,1.4-1.6,2.4-2.8,3.2S646.8,96,645,96c-2.7,0-4.7-0.8-6.1-2.5
			c-1.4-1.6-2.1-3.9-2.1-6.7c0-2.8,0.7-5,2.1-6.7c1.4-1.6,3.4-2.4,6.1-2.4c1.7,0,3.2,0.4,4.4,1.1c1.2,0.7,2.2,1.8,2.8,3.2
			c0.6,1.4,0.9,3,0.9,4.8C653.2,88.7,652.9,90.3,652.3,91.7z M640.7,92.2c1,1.3,2.4,1.9,4.4,1.9c2,0,3.4-0.6,4.4-1.9
			c1-1.3,1.4-3,1.4-5.3c0-2.3-0.5-4.1-1.4-5.3c-1-1.2-2.4-1.9-4.4-1.9c-2,0-3.4,0.6-4.4,1.9c-1,1.2-1.5,3-1.5,5.3
			C639.2,89.2,639.7,91,640.7,92.2z"/>
		<path id="XMLID_743_" class="st0" d="M676.8,79.3c1.1,0.8,1.6,2.1,1.6,3.8c0,2.3-1.2,3.9-3.6,4.7l4.9,8h-2.6l-4.3-7.3h-3.5v7.3
			H667V78h4.9C674.1,78,675.7,78.4,676.8,79.3z M669.2,80v6.6h2.7c1.4,0,2.5-0.3,3.1-0.8c0.7-0.6,1-1.4,1-2.5c0-1.1-0.3-2-1-2.5
			c-0.7-0.5-1.8-0.7-3.2-0.7H669.2z"/>
		<path id="XMLID_741_" class="st0" d="M692.5,95.8V78h9.9v2h-7.7v5.5h6.7v1.9h-6.7v6.3h8.2l-0.7,2H692.5z"/>
		<path id="XMLID_739_" class="st0" d="M716,78h2.2v15.8h8.2l-0.7,2H716V78z"/>
		<path id="XMLID_736_" class="st0" d="M753.2,91.7c-0.6,1.4-1.6,2.4-2.8,3.2S747.7,96,746,96c-2.7,0-4.7-0.8-6.1-2.5
			c-1.4-1.6-2.1-3.9-2.1-6.7c0-2.8,0.7-5,2.1-6.7c1.4-1.6,3.4-2.4,6.1-2.4c1.7,0,3.2,0.4,4.4,1.1c1.2,0.7,2.2,1.8,2.8,3.2
			c0.6,1.4,0.9,3,0.9,4.8C754.1,88.7,753.8,90.3,753.2,91.7z M741.6,92.2c1,1.3,2.4,1.9,4.4,1.9c2,0,3.4-0.6,4.4-1.9
			c1-1.3,1.4-3,1.4-5.3c0-2.3-0.5-4.1-1.4-5.3c-1-1.2-2.4-1.9-4.4-1.9c-2,0-3.4,0.6-4.4,1.9c-1,1.2-1.5,3-1.5,5.3
			C740.1,89.2,740.6,91,741.6,92.2z"/>
		<path id="XMLID_734_" class="st0" d="M776.1,94.7c-1.1,0.9-2.7,1.3-4.6,1.3c-1,0-1.9-0.1-2.8-0.2c-0.8-0.1-1.5-0.4-2.1-0.6
			l0.7-1.8c0.4,0.2,1.1,0.4,1.8,0.5c0.8,0.1,1.6,0.2,2.5,0.2c1.3,0,2.3-0.3,3-0.8c0.7-0.5,1-1.2,1-2.1c0-0.6-0.1-1.1-0.4-1.5
			c-0.2-0.4-0.7-0.8-1.3-1.1c-0.6-0.3-1.4-0.7-2.5-1.1c-1.6-0.6-2.7-1.2-3.5-2.1c-0.7-0.8-1.1-1.9-1.1-3.2c0-1.4,0.5-2.5,1.6-3.3
			c1-0.8,2.4-1.2,4.1-1.2c1.8,0,3.4,0.3,4.9,1l-0.7,1.9c-1.5-0.6-2.9-0.9-4.2-0.9c-1.1,0-1.9,0.2-2.5,0.7c-0.6,0.5-0.9,1.1-0.9,1.9
			c0,0.6,0.1,1.1,0.4,1.5c0.2,0.4,0.6,0.7,1.2,1.1c0.5,0.3,1.3,0.7,2.3,1c1.1,0.4,2,0.8,2.7,1.3c0.7,0.4,1.2,1,1.6,1.6
			c0.4,0.6,0.5,1.4,0.5,2.3C777.8,92.6,777.3,93.8,776.1,94.7z"/>
	</g>
	<g id="XMLID_92_">
		<path id="XMLID_95_" class="st0" d="M413.4,99C413.3,99,413.3,99,413.4,99c-1.2-3.6-1.2-7.9,2.1-12.6c2.6-3.7,5.4-7,4.8-12.8
			c0-0.1,0-0.7,0.6-0.9c0.7-0.3,1.1,0.3,1.1,0.3c3,5,3.7,10.5,2.1,14.7c-2.1,5.7-6.7,7.2-9.1,11.6c-0.1,0.3-0.5,0.5-0.8,0.4
			C413.8,99.7,413.5,99.4,413.4,99z"/>
		<path id="XMLID_94_" class="st0" d="M397.3,101.9c-9.8-3.7-18-16.6-7.6-30.5c9.1-12.1,15.5-19,13.4-27.2c0-0.2-0.1-0.7,0.4-1
			c0.8-0.4,1.3,0.4,1.3,0.4c5.3,8.7,0.5,19.1-7.3,31c-4.4,6.7-6.8,17.3,0.8,25.8c0.4,0.4,0.4,0.9,0.1,1.2
			C398.2,101.9,397.9,102.1,397.3,101.9z"/>
		<path id="XMLID_93_" class="st0" d="M368.8,108.9c1.3-0.2,6.1-1.2,16.1-3.8c6.3-1.7,13.4-0.5,16.3,2.5c2.6,2.7,3.5,6,3.7,6.5
			c0.3,0.8,0.6,2.5,0.6,2.5s2-2.8,2.4-3.3c0.2-0.3,0.7-0.9,1.6-3c0.8-1.9,0-4.7-3.5-7.2c-7.7-5.4-8.6-18.4-2-28.2
			c6.2-9.1,8.4-15.1,7.6-19.8c0-0.1-0.1-0.7,0.5-1c0.6-0.3,1.1,0.2,1.1,0.2c7.9,10.5,1.6,20.9-2.2,26.5c-3.7,5.4-4.9,10-3.8,15.2
			c0.2,1.1,0.4,2.8,1.4,4.7c0.9,1.5,2.4,5.4,4.9,4.5c3.8-1.4,7.6-0.5,14,0.8c9.1,1.9,13.4,2.8,14.6,3c0.4,0.1,0.6,0.4,0.7,0.5
			c0,0.1,6.6,8.9,6.6,8.9s0.3,0.4,0.1,0.9c-0.1,0.3-0.4,0.6-1,0.5c-5.4-1-19.1-3.6-24.6-4.4c-7.3-1-14.2-0.1-17.4,3.6
			c-0.1,0.2-0.4,0.4-0.8,0.4c-0.4,0-0.6-0.2-0.8-0.4c-3.1-3.7-9.9-4.7-16.9-3.7c-5.5,0.8-19.4,3.4-25,4.5c-0.7,0.2-1.1-0.2-1.2-0.6
			c-0.1-0.4,0.2-0.8,0.2-0.8l6.3-9.1C368.3,109.2,368.4,109,368.8,108.9z"/>
	</g>
</g>
</svg>
