<?xml version="1.0" encoding="utf-8"?>
<!-- Generator: Adobe Illustrator 19.0.0, SVG Export Plug-In . SVG Version: 6.00 Build 0)  -->
<svg version="1.1" id="Layer_1" xmlns="http://www.w3.org/2000/svg" xmlns:xlink="http://www.w3.org/1999/xlink" x="0px" y="0px"
	 viewBox="-879 745.2 792 211.6" style="enable-background:new -879 745.2 792 211.6;" xml:space="preserve">
<style type="text/css">
	.st0{fill:#FFFFFF;}
	.st1{opacity:0.3;}
</style>
<g id="Layer_1_1_">
</g>
<g id="Capa_2">
</g>
<g id="Capa_3">
</g>
<g id="Capa_4">
</g>
<g>
	<g>
		<path class="st0" d="M-741.7,878.3c-1.9-0.1-2.1-0.4-2.4-9.5c-2.7,3.4-4,4.7-6,6.2c-3.7,2.7-9.7,4.6-14.7,4.6
			c-5.8,0-12.4-2.5-15.9-5.9c-3.9-3.7-6-9.9-6-17.2c0-0.7,0-1.8,0.1-3v-2.4v-16.9c0-7.9-8.8-7.2-9-8.2c-0.3-1.3,10.6-2,17.4-3.3
			c1.5-0.3,1.8,0.4,1.8,4.6l-0.3,25.2v3.3c0,11,6.6,18.5,16.3,18.5c9.3,0,16.9-6.7,16.2-14.4v-0.4v-24.9c0.1-9.4-9.1-7.6-9.1-8.6
			c0-1.6,13.3-2.9,17.7-3.7c0.9-0.1,1.9,0.1,1.9,3.4v8c5.4-6.5,12-9.8,19.6-9.8c8.2,0,13.2,3.1,17.8,10.8
			c5.7-7.4,12.3-10.8,20.7-10.8c12.9,0,20.7,8.9,20.7,23.7V864c0,3.3,0.6,6.5,1.5,7.7c1.2,1.6,5.1,3.4,7.9,3.7
			c1.4,0.1,1.8,0.6,1.8,1.5c0,0.9-0.6,1.3-1.6,1.3c-0.6,0-23.7,0-24.1,0c-1,0-2-0.5-2-1.4c0-0.6,0.4-1,1.2-1.3
			c5.1-1.9,5.4-2.4,5.4-10.2v-14.9c0-7-1-10.8-3.9-14.5c-3-4-7-6.1-11.7-6.1c-7.2,0-14.5,4.9-14.5,9.6c0,0.4,0,1,0.2,1.8
			c0.4,2.4,0.4,2.7,0.4,4.9v18.9c0,7.4,1.9,9.8,9,10.4c1.7,0.1,2.4,0.7,2.4,1.6c0,0.9-0.7,1.3-1.9,1.3c0,0-23.8,0-24.2,0
			c-0.9,0-1.9-0.3-1.9-1.4c0-0.4,0.5-0.9,1.3-1.2c5.1-1.8,5.2-2.1,5.2-9.6v-19.7c0-10.2-5.7-16.5-15-16.5c-8.5,0-14.4,4.7-14.4,12
			v24c0,1.8,0.1,3.6,0.1,5.1c0.7,4.1,9.5,3.8,9.5,4.4c0,0.7-0.2,1.1-0.8,1.2C-724.8,876.4-741.6,878.3-741.7,878.3z"/>
	</g>
	<g>
		<g>
			<path class="st0" d="M-273.2,830.1l11.9,22.6c3.2,0.2,6.4,0.4,9.5,0.6l-16.3-29.4h-9.6l-14.8,27.2c2.7,0.1,5.5,0.2,8.2,0.4
				L-273.2,830.1z"/>
		</g>
		<g>
			<path class="st0" d="M-211.5,824h-9v31.6c3,0.2,6,0.5,9,0.7V824z"/>
		</g>
		<g>
			<path class="st0" d="M-248,878.1h10l-13.8-24.7c-3.1-0.2-6.3-0.4-9.5-0.6L-248,878.1z"/>
		</g>
		<g>
			<path class="st0" d="M-298.5,878.1l14-26.6c-2.7-0.1-5.5-0.3-8.2-0.4l-14.7,27H-298.5z"/>
		</g>
		<g>
			<path class="st0" d="M-170.5,878.1v-7.5h-41v-14.2c-3-0.3-6-0.5-9-0.7v22.5H-170.5z"/>
		</g>
		<g>
			<polygon class="st0" points="-586.9,824 -603.4,856.4 -603.4,856.4 			"/>
		</g>
		<g>
			<path class="st0" d="M-633.7,824h-9.8l18.8,34.3c2.9-0.3,5.8-0.6,8.8-0.8L-633.7,824z"/>
		</g>
		<g>
			<path class="st0" d="M-551.5,824h-9v29.3c3-0.2,6-0.4,9-0.5V824z"/>
		</g>
		<g>
			<path class="st0" d="M-422.4,831.3h24.9V824h-58.6v7.3h24.8v17.4c3,0,6,0,9-0.1V831.3z"/>
		</g>
		<g>
			<path class="st0" d="M-324.9,824h-9v25.6c3,0.1,6,0.2,9,0.3V824z"/>
		</g>
		<g>
			<path class="st0" d="M-373.4,824h-9v24.7c3,0,6,0.1,9,0.1V824z"/>
		</g>
		<g>
			<path class="st0" d="M-498.4,850v0.2c2-0.1,4-0.1,6.1-0.2H-498.4z"/>
		</g>
		<g>
			<path class="st0" d="M-514.3,831h31c2.2,0,3.7,0.4,4.6,1.2c0.9,0.8,1.3,2.3,1.3,4.4v7.9c0,2.2-0.4,3.6-1.3,4.4
				c-0.4,0.3-0.9,0.6-1.6,0.8c3.9-0.1,7.8-0.2,11.7-0.3c0.1-0.9,0.2-1.8,0.2-2.8v-12.1c0-3.7-0.9-6.4-2.7-8
				c-1.8-1.6-4.7-2.5-8.7-2.5h-43.6v27.2c3-0.1,6-0.3,9-0.4V831z"/>
		</g>
		<g>
			<polygon class="st0" points="-594.6,855.7 -578,824 -594.6,855.7 			"/>
		</g>
		<g>
			<path class="st0" d="M-594.6,855.7L-578,824h-8.9l-16.4,32.4C-600.4,856.1-597.5,855.9-594.6,855.7z"/>
		</g>
		<g class="st1">
			<path class="st0" d="M-483.3,850c1.2,0,2.2-0.1,3-0.4c-4,0.1-8.1,0.2-12.1,0.4H-483.3z"/>
		</g>
		<g>
			<path class="st0" d="M-613.9,878.1l4.1-9l6.4-12.7l0,0l-6.4,12.7l-6.1-11.6c-2.9,0.3-5.9,0.5-8.8,0.8L-613.9,878.1L-613.9,878.1z
				"/>
		</g>
		<g>
			<path class="st0" d="M-551.5,878.1v-25.4c-3,0.2-6,0.4-9,0.5v24.9H-551.5z"/>
		</g>
		<g>
			<path class="st0" d="M-422.4,878.1v-29.5c-3,0-6,0-9,0.1v29.4H-422.4z"/>
		</g>
		<g>
			<path class="st0" d="M-379.7,875.4c1.8,1.8,5.1,2.7,10,2.7h32.2c4.9,0,8.2-0.9,10-2.7c1.7-1.8,2.6-5.2,2.6-10.1v-15.4
				c-3-0.1-6-0.2-9-0.3v20.9h-39.4v-21.7c-3,0-6-0.1-9-0.1v16.6C-382.4,870.2-381.5,873.6-379.7,875.4z"/>
		</g>
		<g>
			<path class="st0" d="M-514.3,878.1v-27.3c-3,0.1-6,0.3-9,0.4v26.9H-514.3z"/>
		</g>
		<g>
			<path class="st0" d="M-483.3,850h-9.1c-2,0.1-4,0.1-6.1,0.2v6.8l22,21.1h13.4l-24.8-21.1h8c4,0,6.9-0.8,8.7-2.5
				c1.3-1.2,2.1-3,2.5-5.2c-3.9,0.1-7.8,0.2-11.7,0.3C-481.1,849.8-482.1,850-483.3,850z"/>
		</g>
		<g>
			<path class="st0" d="M-594.6,855.7c-2.9,0.2-5.9,0.5-8.8,0.7l-6.4,12.7l-4.1,9h7.6L-594.6,855.7z"/>
		</g>
		<g>
			<path class="st0" d="M-310,858.4l-2.4,5.5c30.9-0.6,65.1-5.6,73.2-18.6c-14.7,7.5-37.9,12.2-61.4,12.8c-0.7,0-6.5,0.2-6.5,0.2
				L-310,858.4z"/>
		</g>
	</g>
</g>
</svg>
